<?xml version="1.0" encoding="utf-8"?>
<!-- Generator: Adobe Illustrator 16.0.0, SVG Export Plug-In . SVG Version: 6.00 Build 0)  -->
<!DOCTYPE svg PUBLIC "-//W3C//DTD SVG 1.1//EN" "http://www.w3.org/Graphics/SVG/1.1/DTD/svg11.dtd">
<svg version="1.1" xmlns="http://www.w3.org/2000/svg" xmlns:xlink="http://www.w3.org/1999/xlink" x="0px" y="0px" width="64px"
	 height="64px" viewBox="0 0 64 64" enable-background="new 0 0 64 64" xml:space="preserve">
<g id="Layer_1" display="none">
	<g display="inline">
		<g>
			<defs>
				<rect id="SVGID_1_" x="18.17" y="14.141" width="27.66" height="33.719"/>
			</defs>
			<clipPath id="SVGID_2_">
				<use xlink:href="#SVGID_1_"  overflow="visible"/>
			</clipPath>
			<path clip-path="url(#SVGID_2_)" fill="#101010" d="M39.105,18.731c1.86,0.368,3.415,0.882,4.534,1.489
				c1.38-0.615,2.19-1.344,2.19-2.128c0-2.183-6.192-3.952-13.83-3.952s-13.83,1.769-13.83,3.952c0,0.785,0.812,1.515,2.194,2.13
				c0.018-0.011,0.029-0.029,0.048-0.04c2.256-1.2,6.21-1.977,10.577-2.08c0.525-0.04,0.998,0.419,1.011,0.965
				c0.013,0.545-0.419,0.998-0.964,1.011c-2.98,0.069-5.711,0.46-7.75,1.08c2.379,0.552,5.41,0.884,8.714,0.884
				c3.298,0,6.322-0.331,8.699-0.881c-0.602-0.181-1.253-0.349-1.975-0.491c-0.536-0.107-0.885-0.625-0.779-1.161
				S38.571,18.625,39.105,18.731L39.105,18.731z M39.105,18.731"/>
			<path clip-path="url(#SVGID_2_)" fill="#101010" d="M32.964,25.982c1.759-0.042,5.084-0.241,8.141-1.047
				c0.761-0.903,1.558-1.766,2.281-2.496C39.077,23.948,33.024,24.02,32,24.02c-1.23,0-9.722-0.104-13.721-2.686
				c0.058,0.647,0.149,1.252,0.255,1.837c0.051,0.022,0.105,0.03,0.153,0.061c1.524,1,3.708,1.747,6.49,2.219
				c0.538,0.092,0.899,0.603,0.808,1.14c-0.082,0.481-0.5,0.822-0.973,0.822c-0.055,0-0.111-0.005-0.167-0.013
				c-2.219-0.378-4.103-0.934-5.646-1.648c0.338,0.972,0.75,1.833,1.214,2.61c2.434,0.809,5.324,1.328,8.676,1.51
				c0.545,0.029,0.963,0.495,0.934,1.039c-0.029,0.527-0.464,0.935-0.985,0.935c-0.019,0-0.036,0-0.054-0.001
				c-2.399-0.13-4.572-0.436-6.552-0.879c1.031,1.04,2.154,1.934,3.265,2.63c2.761,0.342,5.807,0.476,9.216,0.293
				c0.517-0.047,1.009,0.39,1.039,0.935c0.026,0.546-0.391,1.011-0.936,1.04c-1.039,0.055-2.048,0.077-3.016,0.077
				c-0.825,0-1.599-0.049-2.391-0.08C31.15,36.81,32,37.694,32,38.969c0,3.488-3.626,7.168-3.663,7.205
				c-0.341,0.343-0.385,0.883-0.102,1.275c0.284,0.395,0.812,0.521,1.243,0.306c1.727-0.864,9.186-4.755,11.614-8.543
				c-1.309,0.226-2.657,0.413-4.068,0.535c-0.029,0.003-0.058,0.004-0.086,0.004c-0.508,0-0.939-0.388-0.982-0.903
				c-0.048-0.543,0.354-1.022,0.898-1.069c1.758-0.15,3.43-0.394,5.014-0.713c0.001-0.022,0.01-0.049,0.01-0.072
				c0-1.89-1.207-2.79-2.177-3.46c-0.764-0.528-1.388-1.052-1.631-1.982c-1.59,0.202-3.268,0.327-5.034,0.362
				c-0.008,0-0.014,0-0.02,0c-0.537,0-0.978-0.43-0.988-0.969c-0.011-0.545,0.423-0.996,0.969-1.007
				c1.805-0.035,3.543-0.179,5.18-0.402c0.224-0.677,0.612-1.416,1.107-2.179c-2.49,0.439-4.864,0.57-6.274,0.603
				c-0.007,0-0.016,0-0.023,0c-0.535,0-0.974-0.427-0.988-0.964C31.987,26.448,32.418,25.996,32.964,25.982L32.964,25.982z
				 M32.964,25.982"/>
		</g>
		<path fill="#101010" d="M27.759,43.618c0.387-0.385,0.387-1.011,0-1.396l-1.976-1.977c-0.386-0.387-1.011-0.387-1.396,0
			c-0.386,0.386-0.386,1.011,0,1.396l1.976,1.976C26.749,44.004,27.374,44.004,27.759,43.618L27.759,43.618z M27.759,43.618"/>
		<path fill="#101010" d="M21.134,47.859h3.951c0.546,0,0.988-0.442,0.988-0.988s-0.442-0.987-0.988-0.987h-3.951
			c-0.546,0-0.988,0.441-0.988,0.987S20.587,47.859,21.134,47.859L21.134,47.859z M21.134,47.859"/>
		<path fill="#101010" d="M22.121,42.92c0,0.546-0.442,0.987-0.987,0.987c-0.546,0-0.988-0.441-0.988-0.987
			c0-0.545,0.442-0.988,0.988-0.988C21.679,41.932,22.121,42.375,22.121,42.92L22.121,42.92z M22.121,42.92"/>
		<path fill="#101010" d="M37.928,46.871c0,0.546-0.443,0.988-0.988,0.988c-0.546,0-0.987-0.442-0.987-0.988
			s0.441-0.987,0.987-0.987C37.484,45.884,37.928,46.325,37.928,46.871L37.928,46.871z M37.928,46.871"/>
	</g>
</g>
<g id="Layer_2" display="none">
	<g transform="translate(20,10)" display="inline">
		<g>
			<path fill="#57A0EE" stroke="#FFFFFF" stroke-width="1.2" stroke-linejoin="round" d="M27.219,18.392c0-4.601-3.7-8.2-8.2-8.2
				c-1,0-1.9,0.2-2.8,0.5c-0.3-3.4-3.101-6.2-6.6-6.2c-3.7,0-6.7,3-6.7,6.7c0,0.8,0.2,1.6,0.4,2.3c-0.3-0.1-0.7-0.1-1-0.1
				c-3.7,0-6.7,3-6.7,6.7c0,3.601,2.9,6.601,6.5,6.7h17.2C23.719,26.291,27.219,22.791,27.219,18.392z"/>
		</g>
	</g>
	<path display="inline" fill="#0F0F0F" d="M31.892,41.465H16.486v1.788h15.406c1.206,0,2.188,0.98,2.188,2.188
		s-0.982,2.188-2.188,2.188s-2.188-0.981-2.188-2.188h-1.788c0,2.192,1.783,3.976,3.976,3.976s3.976-1.783,3.976-3.976
		S34.084,41.465,31.892,41.465L31.892,41.465z M31.892,41.465"/>
	<path display="inline" fill="#0F0F0F" d="M45.409,37.904l-1.093-1.414c-1.396,1.077-3.063,1.647-4.826,1.647H16.486v1.787h15.406
		c3.042,0,5.516,2.474,5.516,5.516h1.788c0-2.199-0.978-4.175-2.521-5.516h2.816C41.652,39.925,43.699,39.227,45.409,37.904
		L45.409,37.904z M45.409,37.904"/>
</g>
<g id="Layer_3">
	<g transform="translate(20,10)">
		<g>
			<path fill="#57A0EE" stroke="#FFFFFF" stroke-width="1.2" stroke-linejoin="round" d="M27.219,18.392c0-4.601-3.7-8.2-8.2-8.2
				c-1,0-1.9,0.2-2.8,0.5c-0.3-3.4-3.101-6.2-6.6-6.2c-3.7,0-6.7,3-6.7,6.7c0,0.8,0.2,1.6,0.4,2.3c-0.3-0.1-0.7-0.1-1-0.1
				c-3.7,0-6.7,3-6.7,6.7c0,3.601,2.9,6.601,6.5,6.7h17.2C23.719,26.291,27.219,22.791,27.219,18.392z"/>
		</g>
	</g>
	<path fill="#0F0F0F" d="M39.561,33.834c-1.679,0-2.582,0.566-3.308,1.021c-0.619,0.389-1.066,0.67-2.082,0.67
		c-1.017,0-1.464-0.281-2.083-0.67c-0.726-0.455-1.628-1.021-3.307-1.021s-2.582,0.566-3.307,1.021
		c-0.62,0.389-1.067,0.67-2.083,0.67c-1.016,0-1.463-0.281-2.083-0.67c-0.726-0.455-1.628-1.021-3.307-1.021v2.307
		c1.016,0,1.463,0.28,2.082,0.668c0.726,0.456,1.628,1.022,3.307,1.022s2.582-0.566,3.307-1.022c0.62-0.388,1.067-0.668,2.083-0.668
		c1.016,0,1.463,0.28,2.082,0.668c0.726,0.456,1.629,1.022,3.308,1.022s2.581-0.566,3.307-1.022
		c0.619-0.388,1.066-0.668,2.083-0.668c1.016,0,1.463,0.28,2.083,0.668c0.726,0.456,1.628,1.022,3.307,1.022v-2.306
		c-1.016,0-1.463-0.281-2.082-0.67C42.142,34.4,41.239,33.834,39.561,33.834L39.561,33.834z M39.561,33.834"/>
	<path fill="#0F0F0F" d="M39.561,39.11c-1.679,0-2.582,0.566-3.308,1.021c-0.619,0.389-1.066,0.67-2.082,0.67
		c-1.017,0-1.464-0.281-2.083-0.67c-0.726-0.455-1.628-1.021-3.307-1.021s-2.582,0.566-3.307,1.021
		c-0.62,0.389-1.067,0.67-2.083,0.67c-1.016,0-1.463-0.281-2.083-0.67c-0.726-0.455-1.628-1.021-3.307-1.021v2.306
		c1.016,0,1.463,0.281,2.082,0.67c0.726,0.455,1.628,1.021,3.307,1.021s2.582-0.566,3.307-1.021c0.62-0.389,1.067-0.67,2.083-0.67
		c1.016,0,1.463,0.281,2.082,0.67c0.726,0.455,1.628,1.021,3.308,1.021c1.679,0,2.581-0.566,3.307-1.021
		c0.619-0.389,1.066-0.67,2.083-0.67c1.016,0,1.463,0.281,2.083,0.67c0.726,0.455,1.628,1.021,3.307,1.021v-2.306
		c-1.016,0-1.464-0.281-2.083-0.67C42.142,39.677,41.239,39.11,39.561,39.11L39.561,39.11z M39.561,39.11"/>
</g>
</svg>
