<?xml version="1.0" encoding="utf-8"?>
<!-- Generator: Adobe Illustrator 16.0.0, SVG Export Plug-In . SVG Version: 6.00 Build 0)  -->
<!DOCTYPE svg PUBLIC "-//W3C//DTD SVG 1.1//EN" "http://www.w3.org/Graphics/SVG/1.1/DTD/svg11.dtd">
<svg version="1.1" id="Layer_1" xmlns="http://www.w3.org/2000/svg" xmlns:xlink="http://www.w3.org/1999/xlink" x="0px" y="0px"
	 width="64px" height="64px" viewBox="0 0 64 64" enable-background="new 0 0 64 64" xml:space="preserve">
<g id="Layer_1_1_" display="none">
	<g display="inline">
		<g>
			<g>
				<defs>
					<rect id="SVGID_1_" x="18.17" y="14.141" width="27.66" height="33.718"/>
				</defs>
				<clipPath id="SVGID_2_">
					<use xlink:href="#SVGID_1_"  overflow="visible"/>
				</clipPath>
				<path clip-path="url(#SVGID_2_)" fill="#101010" d="M39.105,18.731c1.859,0.368,3.414,0.882,4.533,1.489
					c1.381-0.615,2.19-1.344,2.19-2.128c0-2.183-6.192-3.952-13.83-3.952c-7.638,0-13.83,1.769-13.83,3.952
					c0,0.785,0.812,1.515,2.194,2.13c0.018-0.011,0.029-0.029,0.048-0.04c2.256-1.2,6.21-1.977,10.577-2.08
					c0.525-0.04,0.998,0.419,1.011,0.965c0.013,0.545-0.419,0.998-0.964,1.011c-2.98,0.069-5.711,0.46-7.75,1.08
					c2.379,0.552,5.41,0.884,8.714,0.884c3.298,0,6.321-0.331,8.699-0.881c-0.603-0.181-1.253-0.349-1.976-0.491
					c-0.535-0.107-0.885-0.625-0.779-1.161C38.05,18.973,38.57,18.625,39.105,18.731L39.105,18.731z"/>
			</g>
			<g>
				<defs>
					<rect id="SVGID_3_" x="18.17" y="14.141" width="27.66" height="33.718"/>
				</defs>
				<clipPath id="SVGID_4_">
					<use xlink:href="#SVGID_3_"  overflow="visible"/>
				</clipPath>
				<path clip-path="url(#SVGID_4_)" fill="#101010" d="M32.964,25.982c1.759-0.042,5.084-0.241,8.142-1.047
					c0.761-0.903,1.558-1.766,2.281-2.496C39.077,23.948,33.023,24.02,32,24.02c-1.23,0-9.722-0.104-13.721-2.686
					c0.058,0.647,0.149,1.252,0.255,1.837c0.051,0.022,0.105,0.03,0.153,0.061c1.524,1,3.708,1.747,6.49,2.219
					c0.538,0.092,0.899,0.603,0.808,1.14c-0.082,0.481-0.5,0.822-0.973,0.822c-0.055,0-0.111-0.005-0.167-0.013
					c-2.219-0.378-4.103-0.934-5.646-1.648c0.338,0.972,0.75,1.833,1.214,2.61c2.434,0.809,5.324,1.328,8.676,1.51
					c0.545,0.029,0.963,0.495,0.934,1.039c-0.029,0.527-0.464,0.935-0.985,0.935c-0.019,0-0.036,0-0.054-0.001
					c-2.399-0.13-4.572-0.436-6.552-0.879c1.031,1.04,2.154,1.935,3.265,2.63c2.761,0.342,5.807,0.477,9.216,0.293
					c0.517-0.047,1.009,0.391,1.039,0.936c0.026,0.546-0.392,1.011-0.937,1.04c-1.039,0.055-2.048,0.077-3.016,0.077
					c-0.825,0-1.599-0.049-2.391-0.08C31.15,36.811,32,37.693,32,38.969c0,3.488-3.626,7.168-3.663,7.205
					c-0.341,0.344-0.385,0.883-0.102,1.275c0.284,0.395,0.812,0.521,1.243,0.306c1.727-0.864,9.186-4.755,11.614-8.543
					c-1.309,0.226-2.656,0.413-4.068,0.535c-0.028,0.003-0.058,0.004-0.086,0.004c-0.508,0-0.938-0.388-0.981-0.903
					c-0.048-0.543,0.354-1.021,0.897-1.068c1.758-0.15,3.431-0.395,5.015-0.713c0.001-0.022,0.01-0.049,0.01-0.072
					c0-1.891-1.207-2.79-2.177-3.46c-0.764-0.528-1.389-1.052-1.631-1.982c-1.59,0.202-3.269,0.327-5.034,0.362
					c-0.009,0-0.015,0-0.021,0c-0.537,0-0.978-0.43-0.988-0.969c-0.011-0.545,0.423-0.996,0.969-1.007
					c1.805-0.035,3.543-0.179,5.18-0.402c0.224-0.677,0.612-1.416,1.107-2.179c-2.49,0.439-4.864,0.57-6.274,0.603
					c-0.007,0-0.016,0-0.023,0c-0.534,0-0.973-0.427-0.987-0.964C31.987,26.448,32.418,25.996,32.964,25.982L32.964,25.982z"/>
			</g>
		</g>
		<path fill="#101010" d="M27.759,43.618c0.387-0.386,0.387-1.011,0-1.396l-1.976-1.978c-0.386-0.388-1.011-0.388-1.396,0
			c-0.386,0.386-0.386,1.011,0,1.396l1.976,1.977C26.749,44.004,27.374,44.004,27.759,43.618L27.759,43.618z"/>
		<path fill="#101010" d="M21.134,47.859h3.951c0.546,0,0.988-0.442,0.988-0.988s-0.442-0.987-0.988-0.987h-3.951
			c-0.546,0-0.988,0.441-0.988,0.987S20.587,47.859,21.134,47.859L21.134,47.859z"/>
		<path fill="#101010" d="M22.121,42.92c0,0.546-0.442,0.987-0.987,0.987c-0.546,0-0.988-0.441-0.988-0.987
			c0-0.545,0.442-0.988,0.988-0.988C21.679,41.932,22.121,42.375,22.121,42.92L22.121,42.92z"/>
		<path fill="#101010" d="M37.928,46.871c0,0.546-0.443,0.988-0.988,0.988s-0.986-0.442-0.986-0.988s0.441-0.987,0.986-0.987
			S37.928,46.325,37.928,46.871L37.928,46.871z"/>
	</g>
</g>
<g id="Layer_2" display="none">
	<g transform="translate(20,10)" display="inline">
		<g>
			<path fill="#57A0EE" stroke="#FFFFFF" stroke-width="1.2" stroke-linejoin="round" d="M27.219,18.392
				c0-4.601-3.699-8.2-8.199-8.2c-1,0-1.9,0.2-2.801,0.5c-0.3-3.4-3.101-6.2-6.6-6.2c-3.7,0-6.7,3-6.7,6.7c0,0.8,0.2,1.6,0.4,2.3
				c-0.3-0.1-0.7-0.1-1-0.1c-3.7,0-6.7,3-6.7,6.7c0,3.602,2.9,6.602,6.5,6.7h17.199C23.719,26.291,27.219,22.791,27.219,18.392z"/>
		</g>
	</g>
	<path display="inline" fill="#0F0F0F" d="M31.892,41.465H16.486v1.788h15.406c1.206,0,2.188,0.979,2.188,2.188
		c0,1.207-0.982,2.188-2.188,2.188c-1.206,0-2.188-0.98-2.188-2.188h-1.788c0,2.191,1.783,3.976,3.976,3.976
		s3.976-1.783,3.976-3.976C35.868,43.248,34.084,41.465,31.892,41.465L31.892,41.465z"/>
	<path display="inline" fill="#0F0F0F" d="M45.409,37.904l-1.093-1.414c-1.396,1.076-3.063,1.646-4.826,1.646H16.486v1.787h15.406
		c3.042,0,5.516,2.475,5.516,5.516h1.787c0-2.198-0.978-4.174-2.521-5.516h2.816C41.652,39.925,43.699,39.227,45.409,37.904
		L45.409,37.904z"/>
</g>
<g id="Layer_3" display="none">
	<g transform="translate(20,10)" display="inline">
		<g>
			<path fill="#57A0EE" stroke="#FFFFFF" stroke-width="1.2" stroke-linejoin="round" d="M27.219,18.392
				c0-4.601-3.699-8.2-8.199-8.2c-1,0-1.9,0.2-2.801,0.5c-0.3-3.4-3.101-6.2-6.6-6.2c-3.7,0-6.7,3-6.7,6.7c0,0.8,0.2,1.6,0.4,2.3
				c-0.3-0.1-0.7-0.1-1-0.1c-3.7,0-6.7,3-6.7,6.7c0,3.602,2.9,6.602,6.5,6.7h17.199C23.719,26.291,27.219,22.791,27.219,18.392z"/>
		</g>
	</g>
	<path display="inline" fill="#0F0F0F" d="M39.561,33.834c-1.679,0-2.582,0.566-3.308,1.021c-0.619,0.389-1.065,0.67-2.082,0.67
		s-1.464-0.281-2.083-0.67c-0.726-0.455-1.628-1.021-3.307-1.021c-1.679,0-2.582,0.566-3.307,1.021
		c-0.62,0.389-1.067,0.67-2.083,0.67s-1.463-0.281-2.083-0.67c-0.726-0.455-1.628-1.021-3.307-1.021v2.307
		c1.016,0,1.463,0.28,2.082,0.668c0.726,0.457,1.628,1.022,3.307,1.022c1.679,0,2.582-0.565,3.307-1.022
		c0.62-0.388,1.067-0.668,2.083-0.668c1.016,0,1.463,0.28,2.082,0.668c0.726,0.457,1.629,1.022,3.308,1.022
		c1.68,0,2.581-0.565,3.307-1.022c0.619-0.388,1.066-0.668,2.084-0.668c1.016,0,1.463,0.28,2.082,0.668
		c0.727,0.457,1.629,1.022,3.308,1.022v-2.306c-1.017,0-1.464-0.281-2.082-0.67C42.143,34.4,41.238,33.834,39.561,33.834
		L39.561,33.834z"/>
	<path display="inline" fill="#0F0F0F" d="M39.561,39.109c-1.679,0-2.582,0.566-3.308,1.021c-0.619,0.389-1.065,0.67-2.082,0.67
		s-1.464-0.281-2.083-0.67c-0.726-0.455-1.628-1.021-3.307-1.021c-1.679,0-2.582,0.566-3.307,1.021
		c-0.62,0.389-1.067,0.67-2.083,0.67s-1.463-0.281-2.083-0.67c-0.726-0.455-1.628-1.021-3.307-1.021v2.307
		c1.016,0,1.463,0.281,2.082,0.67c0.726,0.455,1.628,1.021,3.307,1.021c1.679,0,2.582-0.566,3.307-1.021
		c0.62-0.389,1.067-0.67,2.083-0.67c1.016,0,1.463,0.281,2.082,0.67c0.726,0.455,1.628,1.021,3.308,1.021s2.581-0.566,3.307-1.021
		c0.619-0.389,1.066-0.67,2.084-0.67c1.016,0,1.463,0.281,2.082,0.67c0.727,0.455,1.629,1.021,3.308,1.021v-2.307
		c-1.017,0-1.464-0.281-2.083-0.67C42.143,39.677,41.238,39.109,39.561,39.109L39.561,39.109z"/>
</g>
<g id="Layer_4" display="none">
	<g display="inline">
		<g>
			<g>
				<defs>
					<rect id="SVGID_5_" x="19.43" y="15" width="27.14" height="36"/>
				</defs>
				<clipPath id="SVGID_6_">
					<use xlink:href="#SVGID_5_"  overflow="visible"/>
				</clipPath>
				<path clip-path="url(#SVGID_6_)" fill="#0F0F0F" d="M34.913,31.243h-2.286v2.164h2.286c0.599,0,1.082-0.484,1.082-1.082
					C35.995,31.727,35.512,31.243,34.913,31.243L34.913,31.243z"/>
			</g>
			<g>
				<defs>
					<rect id="SVGID_7_" x="19.43" y="15" width="27.14" height="36"/>
				</defs>
				<clipPath id="SVGID_8_">
					<use xlink:href="#SVGID_7_"  overflow="visible"/>
				</clipPath>
				<rect x="28.02" y="28.46" clip-path="url(#SVGID_8_)" fill="#0F0F0F" width="2.443" height="2.783"/>
			</g>
			<g>
				<defs>
					<rect id="SVGID_9_" x="19.43" y="15" width="27.14" height="36"/>
				</defs>
				<clipPath id="SVGID_10_">
					<use xlink:href="#SVGID_9_"  overflow="visible"/>
				</clipPath>
				<path clip-path="url(#SVGID_10_)" fill="#0F0F0F" d="M30.964,37.154c-0.312-0.197-0.501-0.543-0.501-0.912v-2.835H28.02v5.295
					c2.189,0.493,3.828,2.452,3.828,4.789c0,2.708-2.203,4.909-4.911,4.909c-2.707,0-4.91-2.201-4.91-4.909
					c0-2.337,1.64-4.296,3.828-4.789v-19.99c0-0.598,0.484-1.083,1.082-1.083c0.599,0,1.083,0.485,1.083,1.083v7.583h2.443v-7.839
					c0-1.906-1.55-3.456-3.456-3.456h-0.138c-1.906,0-3.457,1.55-3.457,3.456v17.786c0,0.369-0.189,0.715-0.5,0.912
					c-2.218,1.414-3.52,3.824-3.481,6.449c0.059,4.021,3.377,7.34,7.4,7.396c4.193,0.058,7.617-3.313,7.617-7.508
					C34.447,40.912,33.145,38.544,30.964,37.154L30.964,37.154z"/>
			</g>
			<g>
				<defs>
					<rect id="SVGID_11_" x="19.43" y="15" width="27.14" height="36"/>
				</defs>
				<clipPath id="SVGID_12_">
					<use xlink:href="#SVGID_11_"  overflow="visible"/>
				</clipPath>
				<path clip-path="url(#SVGID_12_)" fill="#56A0EE" d="M45.986,33.131l-1.871-1.081l1.871-1.081
					c0.518-0.299,0.695-0.961,0.396-1.478c-0.299-0.518-0.962-0.694-1.479-0.396l-1.871,1.08v-2.26c0-0.598-0.485-1.082-1.083-1.082
					c-0.599,0-1.082,0.484-1.082,1.082v2.26l-1.872-1.08c-0.518-0.3-1.18-0.122-1.479,0.396c-0.299,0.517-0.121,1.179,0.396,1.478
					l1.872,1.081l-1.872,1.081c-0.52,0.299-0.695,0.961-0.396,1.479c0.301,0.519,0.963,0.695,1.479,0.396l1.872-1.08v2.26
					c0,0.599,0.483,1.084,1.082,1.084c0.598,0,1.083-0.485,1.083-1.084v-2.26l1.871,1.08c0.518,0.299,1.181,0.122,1.479-0.396
					C46.682,34.092,46.504,33.43,45.986,33.131L45.986,33.131z"/>
			</g>
		</g>
		<path fill="#0F0F0F" d="M24.192,43.491c0,1.515,1.232,2.745,2.746,2.745c1.515,0,2.746-1.23,2.746-2.745
			c0-1.513-1.231-2.746-2.746-2.746C25.424,40.745,24.192,41.979,24.192,43.491L24.192,43.491z"/>
	</g>
</g>
<g id="Layer_5">
	<g enable-background="new    ">
		<path fill="#0F0F0F" d="M27.8,25.65v12.6h-2.394l-6.282-7.65v7.65h-2.88v-12.6h2.412L24.92,33.3V25.65H27.8z"/>
		<path fill="#0F0F0F" d="M34.641,23.094h2.502l-5.94,16.956H28.7L34.641,23.094z"/>
		<path fill="#0F0F0F" d="M45.422,35.55h-5.85l-1.116,2.7h-2.988l5.616-12.6h2.88l5.634,12.6h-3.06L45.422,35.55z M44.504,33.336
			l-1.998-4.824l-1.998,4.824H44.504z"/>
	</g>
</g>
</svg>
